<svg width="64px" height="64px" viewBox="-2 -2 24.00 24.00" xmlns="http://www.w3.org/2000/svg" fill="#000000" transform="matrix(1, 0, 0, 1, 0, 0)"><g id="SVGRepo_bgCarrier" stroke-width="0"></g><g id="SVGRepo_tracerCarrier" stroke-linecap="round" stroke-linejoin="round" stroke="#CCCCCC" stroke-width="0.04"></g><g id="SVGRepo_iconCarrier"> <g id="list-square" transform="translate(-2 -2)"> <rect id="secondary" fill="#2ca9bc" width="18" height="18" rx="1" transform="translate(3 3)"></rect> <line id="primary-upstroke" x2="0.1" transform="translate(7.45 8)" fill="none" stroke="#000000" stroke-linecap="round" stroke-linejoin="round" stroke-width="1.44"></line> <line id="primary-upstroke-2" data-name="primary-upstroke" x2="0.1" transform="translate(7.45 12)" fill="none" stroke="#000000" stroke-linecap="round" stroke-linejoin="round" stroke-width="1.44"></line> <line id="primary-upstroke-3" data-name="primary-upstroke" x2="0.1" transform="translate(7.45 16)" fill="none" stroke="#000000" stroke-linecap="round" stroke-linejoin="round" stroke-width="1.44"></line> <path id="primary" d="M12,8h5m-5,4h5m-5,4h5M3,4V20a1,1,0,0,0,1,1H20a1,1,0,0,0,1-1V4a1,1,0,0,0-1-1H4A1,1,0,0,0,3,4Z" fill="none" stroke="#000000" stroke-linecap="round" stroke-linejoin="round" stroke-width="1.44"></path> </g> </g></svg>